<svg width="25" height="25" viewBox="0 0 25 25" fill="none" xmlns="http://www.w3.org/2000/svg">
<path d="M23.4375 10.9375H14.0625V1.5625C14.0625 0.699561 13.3629 0 12.5 0C11.6371 0 10.9375 0.699561 10.9375 1.5625V10.9375H1.5625C0.699561 10.9375 0 11.6371 0 12.5C0 13.3629 0.699561 14.0625 1.5625 14.0625H10.9375V23.4375C10.9375 24.3004 11.6371 25 12.5 25C13.3629 25 14.0625 24.3004 14.0625 23.4375V14.0625H23.4375C24.3004 14.0625 25 13.3629 25 12.5C25 11.6371 24.3004 10.9375 23.4375 10.9375Z" fill="black"/>
</svg>
